<svg width="107" height="107" viewBox="0 0 107 107" fill="none" xmlns="http://www.w3.org/2000/svg">
<rect x="5" y="5" width="97" height="97" rx="48.5" fill="#074370"/>
<rect x="5" y="5" width="97" height="97" rx="48.5" stroke="white" stroke-width="10"/>
<path fill-rule="evenodd" clip-rule="evenodd" d="M50.772 37.7748L48.8644 35.8672L47.683 37.0486L49.4546 38.8202L38.8222 49.4527L37.0505 47.6811L35.8691 48.8624L37.7768 50.7701C39.3324 52.3256 41.2298 53.4963 43.3178 54.1889C45.4059 54.8815 47.6268 55.0769 49.8037 54.7594C49.9397 54.1574 50.112 53.5614 50.3205 52.9715C48.4936 53.355 46.6213 53.3178 44.8388 52.888L52.89 44.8368C53.4967 47.3382 53.3113 49.9662 52.3596 52.3576L52.3542 52.3712C52.3137 52.4704 52.2726 52.5692 52.2308 52.6677C51.88 53.656 51.9797 53.3958 51.9797 53.3958L51.9126 53.5844L46.7491 58.7469L54.9309 66.9287C56.5223 68.5196 58.6805 69.4134 60.9308 69.4134C63.181 69.4134 65.3392 68.5196 66.9306 66.9287C68.5216 65.3372 69.4153 63.1791 69.4153 60.9288C69.4153 58.6785 68.5216 56.5204 66.9306 54.9289L58.7489 46.7472L54.5447 50.9514C55.0859 48.6154 55.0235 46.1801 54.3635 43.8749C53.7035 41.5697 52.4675 39.4704 50.772 37.7748ZM43.0527 52.3105L52.3134 43.0507C51.8757 41.979 51.2904 40.9738 50.5744 40.0641L40.0661 50.5724C40.9758 51.2881 41.981 51.8731 43.0527 52.3105ZM49.3132 58.7469L58.7489 49.3112L65.6486 56.211C66.8871 57.4649 67.5793 59.1579 67.5738 60.9203C67.5684 62.6827 66.8659 64.3714 65.6196 65.6177C64.3734 66.8639 62.6847 67.5664 60.9223 67.5719C59.1598 67.5773 57.4668 66.8852 56.2129 65.6467L49.3132 58.7469Z" fill="#00FFDA"/>
<path fill-rule="evenodd" clip-rule="evenodd" d="M52.8348 57.8984L57.613 62.7663C58.4389 63.6077 59.3782 64.0103 60.2668 64.0329C61.1481 64.0556 62.0665 63.7074 62.8734 62.8842L64.1682 64.1544C63.0403 65.3041 61.6476 65.8825 60.2205 65.8454C58.798 65.8091 57.428 65.1654 56.3191 64.0366L51.541 59.1678L52.8348 57.8984Z" fill="#00FFDA"/>
</svg>
